# xmcd
#
# Track frame offsets:
# 183
# 20123
# 37670
# 50750
# 68400
# 83770
# 101223
# 117490
# 128728
# 146530
# 164350
#
# Disc length: 2404 seconds
#
#
# Revision: 1
# Processed by: cddbd v1.5.2PL0 Copyright (c) Steve Scherf et al.
# Submitted via: FreeRIP 2.945 
#
DISCID=9209620b
DTITLE=Spencer Bohren - Full moon
DYEAR=1991
DGENRE=Blues
TTITLE0=Ghost train
TTITLE1=Down the road
TTITLE2=Deep ellum
TTITLE3=Witch doctor
TTITLE4=C'mon down
TTITLE5=Full moon
TTITLE6=Disappearing nightly
TTITLE7=Traveling blues
TTITLE8=Stand in line
TTITLE9=Cold wind
TTITLE10=Going to texas
EXTD=YEAR: 1991
EXTT0=
EXTT1=
EXTT2=
EXTT3=
EXTT4=
EXTT5=
EXTT6=
EXTT7=
EXTT8=
EXTT9=
EXTT10=
PLAYORDER=
